<svg xmlns="http://www.w3.org/2000/svg" width="1080" height="350" viewBox="0 0 1080 350"><g transform="translate(28 28)"><g fill="#F4F1EB" fill-rule="evenodd"><path transform="translate(0 0)" d="M0 0H22V111L142 0H154.6L60 88L182 200H152L49 99L22 124V200H0Z"/><path transform="translate(210 0)" d="M0 200L88 0H100L186 200H162L92 23L8 200Z"/><path transform="translate(435 0)" d="M0 0H148V7L28 193H148V200H0V193L120 7H0Z"/><path transform="translate(612 0)" d="M0 200L88 0H100L186 200H162L92 23L8 200Z"/><path transform="translate(854 0)" d="M0 200V0H75C119 0 142 17 142 51C142 81 120 99 84 105L170 200H141L57 108H22V200Z M22 7V101H71C103 101 120 83 120 52C120 23 104 7 73 7Z"/><path d="M23.185546875 262.77734375V266.521484375Q21.392578125 264.8515625 19.3623046875 264.025390625Q17.33203125 263.19921875 15.046875 263.19921875Q10.546875 263.19921875 8.15625 265.9501953125Q5.765625 268.701171875 5.765625 273.904296875Q5.765625 279.08984375 8.15625 281.8408203125Q10.546875 284.591796875 15.046875 284.591796875Q17.33203125 284.591796875 19.3623046875 283.765625Q21.392578125 282.939453125 23.185546875 281.26953125V284.978515625Q21.322265625 286.244140625 19.2392578125 286.876953125Q17.15625 287.509765625 14.8359375 287.509765625Q8.876953125 287.509765625 5.44921875 283.8623046875Q2.021484375 280.21484375 2.021484375 273.904296875Q2.021484375 267.576171875 5.44921875 263.9287109375Q8.876953125 260.28125 14.8359375 260.28125Q17.19140625 260.28125 19.2744140625 260.9052734375Q21.357421875 261.529296875 23.185546875 262.77734375Z"/><path d="M60.59655230978261 263.1640625Q56.72936480978261 263.1640625 54.45299762228261 266.046875Q52.17663043478261 268.9296875 52.17663043478261 273.904296875Q52.17663043478261 278.861328125 54.45299762228261 281.744140625Q56.72936480978261 284.626953125 60.59655230978261 284.626953125Q64.46373980978261 284.626953125 66.72252887228261 281.744140625Q68.98131793478261 278.861328125 68.98131793478261 273.904296875Q68.98131793478261 268.9296875 66.72252887228261 266.046875Q64.46373980978261 263.1640625 60.59655230978261 263.1640625ZM60.59655230978261 260.28125Q66.11608355978261 260.28125 69.42077105978261 263.9814453125Q72.72545855978261 267.681640625 72.72545855978261 273.904296875Q72.72545855978261 280.109375 69.42077105978261 283.8095703125Q66.11608355978261 287.509765625 60.59655230978261 287.509765625Q55.05944293478261 287.509765625 51.74596637228261 283.818359375Q48.43248980978261 280.126953125 48.43248980978261 273.904296875Q48.43248980978261 267.681640625 51.74596637228261 263.9814453125Q55.05944293478261 260.28125 60.59655230978261 260.28125Z"/><path d="M99.55443274456522 260.755859375H104.33568274456522L115.97240149456522 282.7109375V260.755859375H119.41771399456522V287.0H114.63646399456522L102.99974524456522 265.044921875V287.0H99.55443274456522Z"/><path d="M163.4908288043478 261.6171875V265.080078125Q161.4693444293478 264.11328125 159.6763756793478 263.638671875Q157.8834069293478 263.1640625 156.2134850543478 263.1640625Q153.3130944293478 263.1640625 151.7398522418478 264.2890625Q150.1666100543478 265.4140625 150.1666100543478 267.48828125Q150.1666100543478 269.228515625 151.2125084918478 270.1162109375Q152.2584069293478 271.00390625 155.1763756793478 271.548828125L157.3209069293478 271.98828125Q161.2935631793478 272.744140625 163.1832116168478 274.6513671875Q165.0728600543478 276.55859375 165.0728600543478 279.7578125Q165.0728600543478 283.572265625 162.5152428668478 285.541015625Q159.9576256793478 287.509765625 155.0181725543478 287.509765625Q153.1548913043478 287.509765625 151.0543053668478 287.087890625Q148.9537194293478 286.666015625 146.7037194293478 285.83984375V282.18359375Q148.8658288043478 283.396484375 150.9400475543478 284.01171875Q153.0142663043478 284.626953125 155.0181725543478 284.626953125Q158.0591881793478 284.626953125 159.7115319293478 283.431640625Q161.3638756793478 282.236328125 161.3638756793478 280.021484375Q161.3638756793478 278.087890625 160.1773522418478 276.998046875Q158.9908288043478 275.908203125 156.2837975543478 275.36328125L154.1216881793478 274.94140625Q150.1490319293478 274.150390625 148.3736413043478 272.462890625Q146.5982506793478 270.775390625 146.5982506793478 267.76953125Q146.5982506793478 264.2890625 149.0503991168478 262.28515625Q151.5025475543478 260.28125 155.8091881793478 260.28125Q157.6548913043478 260.28125 159.5709069293478 260.615234375Q161.4869225543478 260.94921875 163.4908288043478 261.6171875Z"/><path d="M188.24558423913044 260.755859375H210.44675611413044V263.744140625H201.13034986413044V287.0H197.56199048913044V263.744140625H188.24558423913044Z"/><path d="M247.59408967391306 274.6953125Q248.73666779891306 275.08203125 249.81772248641306 276.34765625Q250.89877717391306 277.61328125 251.98862092391306 279.828125L255.59213654891306 287.0H251.77768342391306L248.42026154891306 280.267578125Q247.11948029891306 277.630859375 245.89780061141306 276.76953125Q244.67612092391306 275.908203125 242.56674592391306 275.908203125H238.69955842391306V287.0H235.14877717391306V260.755859375H243.16440217391306Q247.66440217391306 260.755859375 249.87924592391306 262.63671875Q252.09408967391306 264.517578125 252.09408967391306 268.314453125Q252.09408967391306 270.79296875 250.94272248641306 272.427734375Q249.79135529891306 274.0625 247.59408967391306 274.6953125ZM238.69955842391306 263.673828125V272.990234375H243.16440217391306Q245.73080842391306 272.990234375 247.04037873641306 271.8037109375Q248.34994904891306 270.6171875 248.34994904891306 268.314453125Q248.34994904891306 266.01171875 247.04037873641306 264.8427734375Q245.73080842391306 263.673828125 243.16440217391306 263.673828125Z"/><path d="M281.0324388586957 260.755859375H284.6007982336957V276.69921875Q284.6007982336957 280.91796875 286.1300951086957 282.7724609375Q287.6593919836957 284.626953125 291.0871263586957 284.626953125Q294.4972826086957 284.626953125 296.0265794836957 282.7724609375Q297.5558763586957 280.91796875 297.5558763586957 276.69921875V260.755859375H301.1242357336957V277.138671875Q301.1242357336957 282.271484375 298.5841966711957 284.890625Q296.0441576086957 287.509765625 291.0871263586957 287.509765625Q286.1125169836957 287.509765625 283.5724779211957 284.890625Q281.0324388586957 282.271484375 281.0324388586957 277.138671875Z"/><path d="M348.7129755434783 262.77734375V266.521484375Q346.9200067934783 264.8515625 344.8897333559783 264.025390625Q342.8594599184783 263.19921875 340.5743036684783 263.19921875Q336.0743036684783 263.19921875 333.6836786684783 265.9501953125Q331.2930536684783 268.701171875 331.2930536684783 273.904296875Q331.2930536684783 279.08984375 333.6836786684783 281.8408203125Q336.0743036684783 284.591796875 340.5743036684783 284.591796875Q342.8594599184783 284.591796875 344.8897333559783 283.765625Q346.9200067934783 282.939453125 348.7129755434783 281.26953125V284.978515625Q346.8496942934783 286.244140625 344.7666864809783 286.876953125Q342.6836786684783 287.509765625 340.3633661684783 287.509765625Q334.4043817934783 287.509765625 330.9766474184783 283.8623046875Q327.5489130434783 280.21484375 327.5489130434783 273.904296875Q327.5489130434783 267.576171875 330.9766474184783 263.9287109375Q334.4043817934783 260.28125 340.3633661684783 260.28125Q342.7188349184783 260.28125 344.8018427309783 260.9052734375Q346.8848505434783 261.529296875 348.7129755434783 262.77734375Z"/><path d="M371.83296535326093 260.755859375H394.03413722826093V263.744140625H384.71773097826093V287.0H381.14937160326093V263.744140625H371.83296535326093Z"/><path d="M418.73615828804355 260.755859375H422.28693953804355V287.0H418.73615828804355Z"/><path d="M461.2799762228262 263.1640625Q457.4127887228262 263.1640625 455.1364215353262 266.046875Q452.8600543478262 268.9296875 452.8600543478262 273.904296875Q452.8600543478262 278.861328125 455.1364215353262 281.744140625Q457.4127887228262 284.626953125 461.2799762228262 284.626953125Q465.1471637228262 284.626953125 467.4059527853262 281.744140625Q469.6647418478262 278.861328125 469.6647418478262 273.904296875Q469.6647418478262 268.9296875 467.4059527853262 266.046875Q465.1471637228262 263.1640625 461.2799762228262 263.1640625ZM461.2799762228262 260.28125Q466.7995074728262 260.28125 470.1041949728262 263.9814453125Q473.4088824728262 267.681640625 473.4088824728262 273.904296875Q473.4088824728262 280.109375 470.1041949728262 283.8095703125Q466.7995074728262 287.509765625 461.2799762228262 287.509765625Q455.7428668478262 287.509765625 452.4293902853262 283.818359375Q449.1159137228262 280.126953125 449.1159137228262 273.904296875Q449.1159137228262 267.681640625 452.4293902853262 263.9814453125Q455.7428668478262 260.28125 461.2799762228262 260.28125Z"/><path d="M500.2378566576088 260.755859375H505.0191066576088L516.6558254076087 282.7109375V260.755859375H520.1011379076087V287.0H515.3198879076087L503.6831691576088 265.044921875V287.0H500.2378566576088Z"/><path d="M586.380180027174 272.884765625Q584.780570652174 274.30859375 584.033500339674 275.7236328125Q583.286430027174 277.138671875 583.286430027174 278.685546875Q583.286430027174 281.251953125 585.149711277174 282.95703125Q587.012992527174 284.662109375 589.825492527174 284.662109375Q591.495414402174 284.662109375 592.954398777174 284.1083984375Q594.413383152174 283.5546875 595.696586277174 282.4296875ZM588.858695652174 270.916015625 597.788383152174 280.056640625Q598.825492527174 278.4921875 599.405570652174 276.7080078125Q599.985648777174 274.923828125 600.091117527174 272.919921875H603.360648777174Q603.149711277174 275.240234375 602.235648777174 277.5078125Q601.321586277174 279.775390625 599.686820652174 281.990234375L604.591117527174 287.0H600.161430027174L597.647758152174 284.416015625Q595.819633152174 285.98046875 593.815726902174 286.7451171875Q591.811820652174 287.509765625 589.509086277174 287.509765625Q585.272758152174 287.509765625 582.583305027174 285.0927734375Q579.893851902174 282.67578125 579.893851902174 278.896484375Q579.893851902174 276.646484375 581.071586277174 274.6689453125Q582.249320652174 272.69140625 584.604789402174 270.951171875Q583.761039402174 269.84375 583.321586277174 268.7451171875Q582.882133152174 267.646484375 582.882133152174 266.591796875Q582.882133152174 263.744140625 584.833305027174 262.0126953125Q586.784476902174 260.28125 590.018851902174 260.28125Q591.477836277174 260.28125 592.928031589674 260.59765625Q594.378226902174 260.9140625 595.872367527174 261.546875V264.74609375Q594.343070652174 263.919921875 592.954398777174 263.4892578125Q591.565726902174 263.05859375 590.370414402174 263.05859375Q588.524711277174 263.05859375 587.373344089674 264.0341796875Q586.221976902174 265.009765625 586.221976902174 266.556640625Q586.221976902174 267.453125 586.740531589674 268.3583984375Q587.259086277174 269.263671875 588.858695652174 270.916015625Z"/><path d="M663.2236752717392 260.755859375H666.7744565217392V287.0H663.2236752717392Z"/><path d="M695.1151494565219 260.755859375H699.8963994565219L711.5331182065219 282.7109375V260.755859375H714.9784307065219V287.0H710.1971807065219L698.5604619565219 265.044921875V287.0H695.1151494565219Z"/><path d="M739.6804517663045 260.755859375H761.8816236413045V263.744140625H752.5652173913045V287.0H748.9968580163045V263.744140625H739.6804517663045Z"/><path d="M786.5836447010871 260.755859375H803.1773947010871V263.744140625H790.1344259510871V271.513671875H802.6324728260871V274.501953125H790.1344259510871V284.01171875H803.4938009510871V287.0H786.5836447010871Z"/><path d="M843.0493376358697 274.6953125Q844.1919157608697 275.08203125 845.2729704483697 276.34765625Q846.3540251358697 277.61328125 847.4438688858697 279.828125L851.0473845108697 287.0H847.2329313858697L843.8755095108697 280.267578125Q842.5747282608697 277.630859375 841.3530485733697 276.76953125Q840.1313688858697 275.908203125 838.0219938858697 275.908203125H834.1548063858697V287.0H830.6040251358697V260.755859375H838.6196501358697Q843.1196501358697 260.755859375 845.3344938858697 262.63671875Q847.5493376358697 264.517578125 847.5493376358697 268.314453125Q847.5493376358697 270.79296875 846.3979704483697 272.427734375Q845.2466032608697 274.0625 843.0493376358697 274.6953125ZM834.1548063858697 263.673828125V272.990234375H838.6196501358697Q841.1860563858697 272.990234375 842.4956266983697 271.8037109375Q843.8051970108697 270.6171875 843.8051970108697 268.314453125Q843.8051970108697 266.01171875 842.4956266983697 264.8427734375Q841.1860563858697 263.673828125 838.6196501358697 263.673828125Z"/><path d="M876.8919836956524 260.755859375H880.4427649456524V287.0H876.8919836956524Z"/><path d="M919.435801630435 263.1640625Q915.568614130435 263.1640625 913.292246942935 266.046875Q911.015879755435 268.9296875 911.015879755435 273.904296875Q911.015879755435 278.861328125 913.292246942935 281.744140625Q915.568614130435 284.626953125 919.435801630435 284.626953125Q923.302989130435 284.626953125 925.561778192935 281.744140625Q927.820567255435 278.861328125 927.820567255435 273.904296875Q927.820567255435 268.9296875 925.561778192935 266.046875Q923.302989130435 263.1640625 919.435801630435 263.1640625ZM919.435801630435 260.28125Q924.955332880435 260.28125 928.260020380435 263.9814453125Q931.564707880435 267.681640625 931.564707880435 273.904296875Q931.564707880435 280.109375 928.260020380435 283.8095703125Q924.955332880435 287.509765625 919.435801630435 287.509765625Q913.898692255435 287.509765625 910.585215692935 283.818359375Q907.271739130435 280.126953125 907.271739130435 273.904296875Q907.271739130435 267.681640625 910.585215692935 263.9814453125Q913.898692255435 260.28125 919.435801630435 260.28125Z"/><path d="M970.8389945652176 274.6953125Q971.9815726902176 275.08203125 973.0626273777176 276.34765625Q974.1436820652176 277.61328125 975.2335258152176 279.828125L978.8370414402176 287.0H975.0225883152176L971.6651664402176 280.267578125Q970.3643851902176 277.630859375 969.1427055027176 276.76953125Q967.9210258152176 275.908203125 965.8116508152176 275.908203125H961.9444633152176V287.0H958.3936820652176V260.755859375H966.4093070652176Q970.9093070652176 260.755859375 973.1241508152176 262.63671875Q975.3389945652176 264.517578125 975.3389945652176 268.314453125Q975.3389945652176 270.79296875 974.1876273777176 272.427734375Q973.0362601902176 274.0625 970.8389945652176 274.6953125ZM961.9444633152176 263.673828125V272.990234375H966.4093070652176Q968.9757133152176 272.990234375 970.2852836277176 271.8037109375Q971.5948539402176 270.6171875 971.5948539402176 268.314453125Q971.5948539402176 266.01171875 970.2852836277176 264.8427734375Q968.9757133152176 263.673828125 966.4093070652176 263.673828125Z"/><path d="M1020.4140625000002 261.6171875V265.080078125Q1018.3925781250002 264.11328125 1016.5996093750002 263.638671875Q1014.8066406250002 263.1640625 1013.1367187500002 263.1640625Q1010.2363281250002 263.1640625 1008.6630859375002 264.2890625Q1007.0898437500002 265.4140625 1007.0898437500002 267.48828125Q1007.0898437500002 269.228515625 1008.1357421875002 270.1162109375Q1009.1816406250002 271.00390625 1012.0996093750002 271.548828125L1014.2441406250002 271.98828125Q1018.2167968750002 272.744140625 1020.1064453125002 274.6513671875Q1021.9960937500002 276.55859375 1021.9960937500002 279.7578125Q1021.9960937500002 283.572265625 1019.4384765625002 285.541015625Q1016.8808593750002 287.509765625 1011.9414062500002 287.509765625Q1010.0781250000002 287.509765625 1007.9775390625002 287.087890625Q1005.8769531250002 286.666015625 1003.6269531250002 285.83984375V282.18359375Q1005.7890625000002 283.396484375 1007.8632812500002 284.01171875Q1009.9375000000002 284.626953125 1011.9414062500002 284.626953125Q1014.9824218750002 284.626953125 1016.6347656250002 283.431640625Q1018.2871093750002 282.236328125 1018.2871093750002 280.021484375Q1018.2871093750002 278.087890625 1017.1005859375002 276.998046875Q1015.9140625000002 275.908203125 1013.2070312500002 275.36328125L1011.0449218750002 274.94140625Q1007.0722656250002 274.150390625 1005.2968750000002 272.462890625Q1003.5214843750002 270.775390625 1003.5214843750002 267.76953125Q1003.5214843750002 264.2890625 1005.9736328125002 262.28515625Q1008.4257812500002 260.28125 1012.7324218750002 260.28125Q1014.5781250000002 260.28125 1016.4941406250002 260.615234375Q1018.4101562500002 260.94921875 1020.4140625000002 261.6171875Z"/></g></g></svg>